# xmcd
#
# Track frame offsets:
#	150
#	11415
#	26018
#	41891
#	53128
#	65807
#	77223
#	89434
#	100184
#	119051
#	129938
#	142596
#
# Disc length: 2079 seconds
#
# Revision: 1
# Processed by: cddbd v1.5.2PL0 Copyright (c) Steve Scherf et al.
# Submitted via: audiograbber 1.83.01
#
DISCID=a0081d0c
DTITLE=Buddy Williams - The Bushland That I Love
DYEAR=1978
DGENRE=Country
TTITLE0=Bushlander That I Love
TTITLE1=The Girl Who Broke My Heart
TTITLE2=We Miss Her When The Dreary Days Are Through
TTITLE3=Our Two Initials Carved In That Tree
TTITLE4=Precious Memories
TTITLE5=These Unemployment Blues
TTITLE6=We Were Bigger Than Big In Biggeraditon
TTITLE7=Take You Back To Tamworth With A Song
TTITLE8=I'd Like A Glass Of beer
TTITLE9=It Takes Three To Make One Broken Heart
TTITLE10=At Apple Blossom Time
TTITLE11=Jimmy And Old Snuff
EXTD=
EXTT0=
EXTT1=
EXTT2=
EXTT3=
EXTT4=
EXTT5=
EXTT6=
EXTT7=
EXTT8=
EXTT9=
EXTT10=
EXTT11=
PLAYORDER=
